<svg width="17" height="17" viewBox="0 0 17 17" fill="none" xmlns="http://www.w3.org/2000/svg">
<g clip-path="url(#clip0_1228_14330)">
<rect x="0.25" width="16" height="17" rx="3" fill="#1E1E1E"/>
<path d="M11.168 7.95703H9.96094C9.83203 7.30078 9.33984 6.7793 8.51367 6.7793C7.53516 6.7793 6.89062 7.59375 6.89062 8.91797C6.89062 10.2715 7.54102 11.0566 8.52539 11.0566C9.30469 11.0566 9.81445 10.6289 9.96094 9.91406H11.1797C11.0449 11.2266 9.99609 12.1172 8.51367 12.1172C6.75 12.1172 5.60156 10.9102 5.60156 8.91797C5.60156 6.96094 6.75 5.72461 8.50195 5.72461C10.0898 5.72461 11.0566 6.74414 11.168 7.95703Z" fill="#919191"/>
</g>
<defs>
<clipPath id="clip0_1228_14330">
<rect x="0.25" width="16" height="17" rx="3" fill="white"/>
</clipPath>
</defs>
</svg>
