<svg width="20" height="21" viewBox="0 0 20 21" fill="none" xmlns="http://www.w3.org/2000/svg">
<path d="M18.8 10.7084C18.8 10.0584 18.7417 9.43337 18.6333 8.83337H10V12.3834H14.9333C14.7167 13.525 14.0667 14.4917 13.0917 15.1417V17.45H16.0667C17.8 15.85 18.8 13.5 18.8 10.7084Z" fill="#4285F4"/>
<path d="M9.99998 19.6667C12.475 19.6667 14.55 18.85 16.0667 17.45L13.0917 15.1417C12.275 15.6917 11.2333 16.025 9.99998 16.025C7.61665 16.025 5.59165 14.4167 4.86665 12.25H1.81665V14.6167C3.32498 17.6083 6.41665 19.6667 9.99998 19.6667Z" fill="#34A853"/>
<path d="M4.86671 12.2417C4.68337 11.6917 4.57504 11.1084 4.57504 10.5001C4.57504 9.89172 4.68337 9.30839 4.86671 8.75839V6.39172H1.81671C1.19171 7.62506 0.833374 9.01672 0.833374 10.5001C0.833374 11.9834 1.19171 13.3751 1.81671 14.6084L4.19171 12.7584L4.86671 12.2417Z" fill="#FBBC05"/>
<path d="M9.99998 4.98337C11.35 4.98337 12.55 5.45004 13.5083 6.35004L16.1333 3.72504C14.5417 2.24171 12.475 1.33337 9.99998 1.33337C6.41665 1.33337 3.32498 3.39171 1.81665 6.39171L4.86665 8.75837C5.59165 6.59171 7.61665 4.98337 9.99998 4.98337Z" fill="#EA4335"/>
</svg>
