<svg width="32" height="32" viewBox="0 0 32 32" fill="none" xmlns="http://www.w3.org/2000/svg">
<rect x="0.5" y="0.5" width="31" height="31" rx="5" fill="#4247C6"/>
<path d="M8.77273 14.7144V12.3364C8.77273 11.4326 8.0401 10.7 7.13636 10.7C6.23262 10.7 5.5 11.4326 5.5 12.3364V14.9667C5.5 19.6795 9.32051 23.5 14.0333 23.5H14.2454C17.6868 23.5 20.8082 21.4817 22.2205 18.3434L26.1503 9.61036C26.5959 8.62018 25.8716 7.5 24.7858 7.5C24.2016 7.5 23.6708 7.84003 23.4265 8.37075L19.4323 17.0496C18.5205 19.0307 16.5391 20.3 14.3583 20.3C11.2735 20.3 8.77273 17.7993 8.77273 14.7144Z" fill="white"/>
</svg>
