<svg width="20" height="21" viewBox="0 0 20 21" fill="none" xmlns="http://www.w3.org/2000/svg">
<path d="M3.75642 16.0833C3.391 16.0833 3.07635 15.9513 2.81246 15.6875C2.54857 15.4236 2.41663 15.1089 2.41663 14.7435V6.25642C2.41663 5.891 2.54857 5.57635 2.81246 5.31246C3.07635 5.04857 3.391 4.91663 3.75642 4.91663H16.2435C16.6228 4.91663 16.9409 5.04857 17.1979 5.31246C17.4548 5.57635 17.5833 5.891 17.5833 6.25642V14.7435C17.5833 15.1089 17.4548 15.4236 17.1979 15.6875C16.9409 15.9513 16.6228 16.0833 16.2435 16.0833H3.75642ZM9.99996 11.1314L16.5 7.306L16.3718 5.99996L9.99996 9.72913L3.62808 5.99996L3.49996 7.306L9.99996 11.1314Z" fill="#5F6368"/>
</svg>
