<svg width="14" height="14" viewBox="0 0 14 14" fill="none" xmlns="http://www.w3.org/2000/svg">
<path d="M10.4793 7.8333H1.16683C0.930718 7.8333 0.732802 7.75344 0.573079 7.59372C0.413357 7.434 0.333496 7.23608 0.333496 6.99997C0.333496 6.76386 0.413357 6.56594 0.573079 6.40622C0.732802 6.2465 0.930718 6.16664 1.16683 6.16664H10.4793L6.396 2.0833C6.22933 1.91664 6.14947 1.72219 6.15641 1.49997C6.16336 1.27775 6.25016 1.0833 6.41683 0.916636C6.5835 0.763858 6.77794 0.683997 7.00016 0.677052C7.22238 0.670108 7.41683 0.749969 7.5835 0.916636L13.0835 6.41664C13.1668 6.49997 13.2259 6.59025 13.2606 6.68747C13.2953 6.78469 13.3127 6.88886 13.3127 6.99997C13.3127 7.11108 13.2953 7.21525 13.2606 7.31247C13.2259 7.40969 13.1668 7.49997 13.0835 7.5833L7.5835 13.0833C7.43072 13.2361 7.23975 13.3125 7.01058 13.3125C6.78141 13.3125 6.5835 13.2361 6.41683 13.0833C6.25016 12.9166 6.16683 12.7187 6.16683 12.4896C6.16683 12.2604 6.25016 12.0625 6.41683 11.8958L10.4793 7.8333Z" fill="#353535"/>
</svg>
