<svg width="10" height="8" viewBox="0 0 10 8" fill="none" xmlns="http://www.w3.org/2000/svg">
<path d="M3.57099 5.8375L8.51474 0.89375C8.63141 0.777083 8.76752 0.71875 8.92308 0.71875C9.07863 0.71875 9.21474 0.777083 9.33141 0.89375C9.44808 1.01042 9.50641 1.14896 9.50641 1.30937C9.50641 1.46979 9.44808 1.60833 9.33141 1.725L3.97933 7.09167C3.86266 7.20833 3.72655 7.26667 3.57099 7.26667C3.41544 7.26667 3.27933 7.20833 3.16266 7.09167L0.654328 4.58333C0.537661 4.46667 0.481759 4.32812 0.48662 4.16771C0.491481 4.00729 0.552245 3.86875 0.668911 3.75208C0.785578 3.63542 0.92412 3.57708 1.08454 3.57708C1.24495 3.57708 1.38349 3.63542 1.50016 3.75208L3.57099 5.8375Z" fill="white"/>
</svg>
