<svg width="36" height="16" viewBox="0 0 36 16" fill="none" xmlns="http://www.w3.org/2000/svg">
<path d="M2.35891 0V10.0014C2.35891 12.2481 3.72792 13.8296 6.15001 13.8296C8.5721 13.8296 9.95164 12.2481 9.95164 10.0014V0H12.3V10.2086C12.3 13.6005 9.96217 16 6.15001 16C2.33785 16 0 13.6005 0 10.2086V0H2.35891Z" fill="white"/>
<path d="M30.4762 15.7382H28.3174V4.15542H28.2437L23.6628 15.6183H21.9147L17.3232 4.15542H17.2495V15.7382H15.1012V0H17.8287L22.7466 12.4226H22.8309L27.7382 0H30.4762V15.7382Z" fill="white"/>
<path d="M35.6364 15.7382H33.2775V0H35.6364V15.7382Z" fill="white"/>
</svg>
