<svg width="102" height="101" viewBox="0 0 102 101" fill="none" xmlns="http://www.w3.org/2000/svg">
<path d="M58.8094 64.2201L58.8417 64.2362L58.874 64.1797L58.8094 64.2201Z" stroke="#6D6D6D" stroke-width="0.768" stroke-linecap="round" stroke-linejoin="round"/>
<path d="M28.5579 77.3744V99.0932L12.3979 91.0132V69.2944L19.9688 73.0839L24.4936 75.3464L28.5579 77.3744Z" fill="#393939" stroke="#6D6D6D" stroke-width="0.768" stroke-linecap="round" stroke-linejoin="round"/>
<path d="M89.1256 42.4041V64.1231L28.5579 99.0932V77.3743L36.1288 73.003V86.0359L81.5546 59.8084V46.7753L89.1256 42.4041Z" stroke="#6D6D6D" stroke-width="0.768" stroke-linecap="round" stroke-linejoin="round"/>
<path d="M36.1288 73.0029L28.5579 77.3741L24.4936 75.3461L19.9688 73.0837L12.3979 69.2941L19.9688 64.9229L32.0646 70.9748L36.1288 73.0029Z" stroke="#393939" stroke-width="0.768" stroke-linecap="round" stroke-linejoin="round"/>
<path d="M45.2108 44.0846L39.9103 53.4413L23.7503 45.3613L29.0508 36.0046L38.8922 40.9254L45.2108 44.0846Z" fill="#393939" stroke="#6D6D6D" stroke-width="0.768" stroke-linecap="round" stroke-linejoin="round"/>
<path d="M77.7732 31.5848L75.4623 35.5683L72.9656 39.8749L71.794 41.8949L65.936 52.003L58.874 64.1796L58.8094 64.22L51.2384 59.8972L43.1746 55.2996L39.9103 53.4412L45.2108 44.0846L48.572 45.9996L55.0522 49.6921V14.2936L62.6312 9.92236V45.3208L65.3946 40.5536L66.2268 39.1154L67.0106 37.758L72.4727 28.3448L77.7732 31.5848Z" fill="#4D4D4D" stroke="#6D6D6D" stroke-width="0.768" stroke-linecap="round" stroke-linejoin="round"/>
<path d="M36.1288 73.0028L32.0646 70.9748L50.7456 60.188L58.8094 64.2199L58.8417 64.236L58.874 64.1795L65.936 52.0029L72.9656 55.5177L81.5546 59.8082L36.1288 86.0357V73.0028Z" fill="#4D4D4D" stroke="#6D6D6D" stroke-width="0.768" stroke-linecap="round" stroke-linejoin="round"/>
<path d="M81.5546 46.7753V59.8084L72.9656 55.5179L65.936 52.0031L71.794 41.895L72.9656 42.4849L81.5546 46.7753Z" stroke="#6D6D6D" stroke-width="0.768" stroke-linecap="round" stroke-linejoin="round"/>
<path d="M62.6312 9.92243L55.0522 14.2937L38.8922 6.21369L46.4712 1.84241L62.6312 9.92243Z" fill="#4D4D4D" stroke="#6D6D6D" stroke-width="0.768" stroke-linecap="round" stroke-linejoin="round"/>
<path d="M55.0522 14.2939V49.6923L48.572 45.9998L45.2108 44.0848L38.8922 40.9255V6.21387L55.0522 14.2939Z" fill="#393939" stroke="#6D6D6D" stroke-width="0.768" stroke-linecap="round" stroke-linejoin="round"/>
<path d="M58.8094 64.22L50.7456 60.1881L42.6817 56.1562L23.7503 45.3613L39.9103 53.4413L43.1746 55.2997L51.2384 59.8972L58.8094 64.22Z" fill="#393939" stroke="#6D6D6D" stroke-width="0.768" stroke-linecap="round" stroke-linejoin="round"/>
<path d="M72.4727 28.3448L67.0106 37.758L66.2268 39.1154L65.3946 40.5537L62.6312 45.3209V23.4241L72.4727 28.3448Z" fill="#393939" stroke="#6D6D6D" stroke-width="0.768" stroke-linecap="round" stroke-linejoin="round"/>
<path d="M89.1256 42.404L81.5546 46.7753L72.9656 42.4848L71.794 41.895L72.9656 39.875L75.4623 35.5684L89.1256 42.404Z" stroke="#6D6D6D" stroke-width="0.768" stroke-linecap="round" stroke-linejoin="round"/>
</svg>
