<svg width="12" height="12" viewBox="0 0 12 12" fill="none" xmlns="http://www.w3.org/2000/svg">
<path d="M6 5.74357C5.27889 5.74357 4.66805 5.49329 4.1675 4.99274C3.66694 4.49232 3.41666 3.88149 3.41666 3.16024C3.41666 2.43913 3.66694 1.82829 4.1675 1.32774C4.66805 0.827182 5.27889 0.576904 6 0.576904C6.72111 0.576904 7.33194 0.827182 7.8325 1.32774C8.33305 1.82829 8.58333 2.43913 8.58333 3.16024C8.58333 3.88149 8.33305 4.49232 7.8325 4.99274C7.33194 5.49329 6.72111 5.74357 6 5.74357ZM0.416664 10.3238V9.90378C0.416664 9.6485 0.492775 9.40253 0.644998 9.16586C0.79722 8.9292 1.01014 8.72433 1.28375 8.55128C2.01014 8.13364 2.77507 7.81343 3.57854 7.59065C4.38201 7.36788 5.18916 7.25649 6 7.25649C6.81083 7.25649 7.61798 7.36788 8.42146 7.59065C9.22493 7.81343 9.98986 8.13364 10.7162 8.55128C10.9899 8.71045 11.2028 8.91183 11.355 9.15545C11.5072 9.39906 11.5833 9.6485 11.5833 9.90378V10.3238C11.5833 10.6335 11.4776 10.8942 11.266 11.1059C11.0545 11.3174 10.7938 11.4232 10.484 11.4232H1.51604C1.20618 11.4232 0.945484 11.3174 0.733956 11.1059C0.522428 10.8942 0.416664 10.6335 0.416664 10.3238Z" fill="#5F6368"/>
</svg>
